<?xml version="1.0" encoding="UTF-8"?>
<svg width="1200pt" height="1200pt" version="1.1" viewBox="0 0 1200 1200" xmlns="http://www.w3.org/2000/svg">
 <g>
  <rect width="1200" height="1200" fill="#fff"/>
  <path d="m600 228.19c-204.04 0-370.3 166.26-370.3 370.3 0 204.04 166.26 370.3 370.3 370.3s370.3-166.26 370.3-370.3c0-204.04-166.26-370.3-370.3-370.3zm0 678.63c-170.04 0-308.33-138.3-308.33-308.33 0.003906-169.28 138.3-307.57 308.33-307.57s308.33 138.3 308.33 308.33c-0.75391 170.04-138.29 307.57-308.33 307.57z"/>
  <path d="m715.62 539.54h-40.051v-36.273c0-41.562-34.008-75.57-75.57-75.57s-75.57 34.008-75.57 75.57l-0.003906 36.273h-40.055c-12.09 0-21.16 8.3125-21.16 18.895l0.75781 157.95c0 12.09 8.3125 21.16 18.895 21.16h234.27c10.578 0 18.895-9.8242 18.895-21.16l1.5117-157.19c-0.75781-10.582-9.8242-19.652-21.918-19.652zm-115.62 157.19c-14.359 0-25.695-11.336-25.695-25.695 0-14.359 11.336-25.695 25.695-25.695s25.695 11.336 25.695 25.695c-0.75391 14.359-12.09 25.695-25.695 25.695zm34.008-157.19h-68.016v-36.273c0-18.895 15.113-34.008 34.008-34.008s34.008 15.113 34.008 34.008z"/>
 </g>
</svg>
